<?xml version="1.0" encoding="UTF-8" standalone="no"?>
<!DOCTYPE svg PUBLIC "-//W3C//DTD SVG 1.1//EN"
 "http://www.w3.org/Graphics/SVG/1.1/DTD/svg11.dtd">
<!-- Generated by graphviz version 2.40.1 (20161225.0304)
 -->
<!-- Title: dependencies Pages: 1 -->
<svg width="810pt" height="284pt"
 viewBox="0.00 0.00 810.00 284.00" xmlns="http://www.w3.org/2000/svg" xmlns:xlink="http://www.w3.org/1999/xlink">
<g id="graph0" class="graph" transform="scale(1 1) rotate(0) translate(4 280)">
<title>dependencies</title>
<polygon fill="#ffffff" stroke="transparent" points="-4,4 -4,-280 806,-280 806,4 -4,4"/>
<text text-anchor="start" x="380.0091" y="-42.4" font-family="sans-serif" font-weight="bold" font-size="14.00" fill="#000000">Legend</text>
<polygon fill="#ffffb3" stroke="transparent" points="167,-10 167,-30 187,-30 187,-10 167,-10"/>
<text text-anchor="start" x="190.629" y="-15.4" font-family="sans-serif" font-size="14.00" fill="#000000"> &#160;Declarations</text>
<polygon fill="#8dd3c7" stroke="transparent" points="280,-10 280,-30 300,-30 300,-10 280,-10"/>
<text text-anchor="start" x="303.7251" y="-15.4" font-family="sans-serif" font-size="14.00" fill="#000000"> &#160;Module</text>
<polygon fill="#80b1d3" stroke="transparent" points="366,-10 366,-30 386,-30 386,-10 366,-10"/>
<text text-anchor="start" x="389.7812" y="-15.4" font-family="sans-serif" font-size="14.00" fill="#000000"> &#160;Bootstrap</text>
<polygon fill="#fdb462" stroke="transparent" points="463,-10 463,-30 483,-30 483,-10 463,-10"/>
<text text-anchor="start" x="486.6732" y="-15.4" font-family="sans-serif" font-size="14.00" fill="#000000"> &#160;Providers</text>
<polygon fill="#fb8072" stroke="transparent" points="559,-10 559,-30 579,-30 579,-10 559,-10"/>
<text text-anchor="start" x="582.7258" y="-15.4" font-family="sans-serif" font-size="14.00" fill="#000000"> &#160;Exports</text>
<g id="clust1" class="cluster">
<title>cluster_SharedModule</title>
<polygon fill="none" stroke="#000000" stroke-dasharray="1,5" points="8,-70 8,-268 794,-268 794,-70 8,-70"/>
</g>
<g id="clust2" class="cluster">
<title>cluster_SharedModule_declarations</title>
<polygon fill="none" stroke="#000000" points="16,-78 16,-130 786,-130 786,-78 16,-78"/>
</g>
<g id="clust11" class="cluster">
<title>cluster_SharedModule_exports</title>
<polygon fill="none" stroke="#000000" points="71,-208 71,-260 731,-260 731,-208 71,-208"/>
</g>
<!-- GetKeyPipe -->
<g id="node1" class="node">
<title>GetKeyPipe</title>
<polygon fill="#ffffb3" stroke="#000000" points="778.4219,-122 693.5781,-122 693.5781,-86 778.4219,-86 778.4219,-122"/>
<text text-anchor="middle" x="736" y="-99.8" font-family="Times,serif" font-size="14.00" fill="#000000">GetKeyPipe</text>
</g>
<!-- SharedModule -->
<g id="node8" class="node">
<title>SharedModule</title>
<polygon fill="#8dd3c7" stroke="#000000" points="432.4231,-187 429.4231,-191 408.4231,-191 405.4231,-187 333.5769,-187 333.5769,-151 432.4231,-151 432.4231,-187"/>
<text text-anchor="middle" x="383" y="-164.8" font-family="Times,serif" font-size="14.00" fill="#000000">SharedModule</text>
</g>
<!-- GetKeyPipe&#45;&gt;SharedModule -->
<g id="edge1" class="edge">
<title>GetKeyPipe&#45;&gt;SharedModule</title>
<path fill="none" stroke="#000000" d="M708.375,-122.1061C708.375,-141.3391 708.375,-169 708.375,-169 708.375,-169 442.4175,-169 442.4175,-169"/>
<polygon fill="#000000" stroke="#000000" points="442.4175,-165.5001 432.4175,-169 442.4174,-172.5001 442.4175,-165.5001"/>
</g>
<!-- GetUserPipe -->
<g id="node2" class="node">
<title>GetUserPipe</title>
<polygon fill="#ffffb3" stroke="#000000" points="675.5273,-122 588.4727,-122 588.4727,-86 675.5273,-86 675.5273,-122"/>
<text text-anchor="middle" x="632" y="-99.8" font-family="Times,serif" font-size="14.00" fill="#000000">GetUserPipe</text>
</g>
<!-- GetUserPipe&#45;&gt;SharedModule -->
<g id="edge2" class="edge">
<title>GetUserPipe&#45;&gt;SharedModule</title>
<path fill="none" stroke="#000000" d="M602.875,-122.0225C602.875,-139.3734 602.875,-163 602.875,-163 602.875,-163 442.3442,-163 442.3442,-163"/>
<polygon fill="#000000" stroke="#000000" points="442.3443,-159.5001 432.3442,-163 442.3442,-166.5001 442.3443,-159.5001"/>
</g>
<!-- ObjectCountPipe -->
<g id="node3" class="node">
<title>ObjectCountPipe</title>
<polygon fill="#ffffb3" stroke="#000000" points="570.4328,-122 457.5672,-122 457.5672,-86 570.4328,-86 570.4328,-122"/>
<text text-anchor="middle" x="514" y="-99.8" font-family="Times,serif" font-size="14.00" fill="#000000">ObjectCountPipe</text>
</g>
<!-- ObjectCountPipe&#45;&gt;SharedModule -->
<g id="edge3" class="edge">
<title>ObjectCountPipe&#45;&gt;SharedModule</title>
<path fill="none" stroke="#000000" d="M483.375,-122.2396C483.375,-137.5706 483.375,-157 483.375,-157 483.375,-157 442.3053,-157 442.3053,-157"/>
<polygon fill="#000000" stroke="#000000" points="442.3054,-153.5001 432.3053,-157 442.3053,-160.5001 442.3054,-153.5001"/>
</g>
<!-- OrderComponent -->
<g id="node4" class="node">
<title>OrderComponent</title>
<polygon fill="#ffffb3" stroke="#000000" points="439.9748,-122 326.0252,-122 326.0252,-86 439.9748,-86 439.9748,-122"/>
<text text-anchor="middle" x="383" y="-99.8" font-family="Times,serif" font-size="14.00" fill="#000000">OrderComponent</text>
</g>
<!-- OrderComponent&#45;&gt;SharedModule -->
<g id="edge4" class="edge">
<title>OrderComponent&#45;&gt;SharedModule</title>
<path fill="none" stroke="#000000" d="M383,-122.1061C383,-122.1061 383,-140.991 383,-140.991"/>
<polygon fill="#000000" stroke="#000000" points="379.5001,-140.9909 383,-150.991 386.5001,-140.991 379.5001,-140.9909"/>
</g>
<!-- SafeHtmlPipe -->
<g id="node5" class="node">
<title>SafeHtmlPipe</title>
<polygon fill="#ffffb3" stroke="#000000" points="308.0397,-122 213.9603,-122 213.9603,-86 308.0397,-86 308.0397,-122"/>
<text text-anchor="middle" x="261" y="-99.8" font-family="Times,serif" font-size="14.00" fill="#000000">SafeHtmlPipe</text>
</g>
<!-- SafeHtmlPipe&#45;&gt;SharedModule -->
<g id="edge5" class="edge">
<title>SafeHtmlPipe&#45;&gt;SharedModule</title>
<path fill="none" stroke="#000000" d="M292.625,-122.2396C292.625,-137.5706 292.625,-157 292.625,-157 292.625,-157 323.5817,-157 323.5817,-157"/>
<polygon fill="#000000" stroke="#000000" points="323.5817,-160.5001 333.5817,-157 323.5817,-153.5001 323.5817,-160.5001"/>
</g>
<!-- SortPipe -->
<g id="node6" class="node">
<title>SortPipe</title>
<polygon fill="#ffffb3" stroke="#000000" points="196.222,-122 131.778,-122 131.778,-86 196.222,-86 196.222,-122"/>
<text text-anchor="middle" x="164" y="-99.8" font-family="Times,serif" font-size="14.00" fill="#000000">SortPipe</text>
</g>
<!-- SortPipe&#45;&gt;SharedModule -->
<g id="edge6" class="edge">
<title>SortPipe&#45;&gt;SharedModule</title>
<path fill="none" stroke="#000000" d="M182.1035,-122.0225C182.1035,-139.3734 182.1035,-163 182.1035,-163 182.1035,-163 323.5979,-163 323.5979,-163"/>
<polygon fill="#000000" stroke="#000000" points="323.5979,-166.5001 333.5979,-163 323.5978,-159.5001 323.5979,-166.5001"/>
</g>
<!-- TruncatePipe -->
<g id="node7" class="node">
<title>TruncatePipe</title>
<polygon fill="#ffffb3" stroke="#000000" points="114.1361,-122 23.8639,-122 23.8639,-86 114.1361,-86 114.1361,-122"/>
<text text-anchor="middle" x="69" y="-99.8" font-family="Times,serif" font-size="14.00" fill="#000000">TruncatePipe</text>
</g>
<!-- TruncatePipe&#45;&gt;SharedModule -->
<g id="edge7" class="edge">
<title>TruncatePipe&#45;&gt;SharedModule</title>
<path fill="none" stroke="#000000" d="M96.625,-122.1061C96.625,-141.3391 96.625,-169 96.625,-169 96.625,-169 323.7704,-169 323.7704,-169"/>
<polygon fill="#000000" stroke="#000000" points="323.7704,-172.5001 333.7704,-169 323.7703,-165.5001 323.7704,-172.5001"/>
</g>
<!-- GetKeyPipe  -->
<g id="node9" class="node">
<title>GetKeyPipe </title>
<polygon fill="#fb8072" stroke="#000000" points="722.9208,-252 635.0792,-252 635.0792,-216 722.9208,-216 722.9208,-252"/>
<text text-anchor="middle" x="679" y="-229.8" font-family="Times,serif" font-size="14.00" fill="#000000">GetKeyPipe </text>
</g>
<!-- SharedModule&#45;&gt;GetKeyPipe  -->
<g id="edge8" class="edge">
<title>SharedModule&#45;&gt;GetKeyPipe </title>
<path fill="none" stroke="#000000" stroke-dasharray="5,2" d="M432.3298,-175C510.8284,-175 655.4013,-175 655.4013,-175 655.4013,-175 655.4013,-205.9775 655.4013,-205.9775"/>
<polygon fill="#000000" stroke="#000000" points="651.9014,-205.9774 655.4013,-215.9775 658.9014,-205.9775 651.9014,-205.9774"/>
</g>
<!-- GetUserPipe  -->
<g id="node10" class="node">
<title>GetUserPipe </title>
<polygon fill="#fb8072" stroke="#000000" points="617.526,-252 526.474,-252 526.474,-216 617.526,-216 617.526,-252"/>
<text text-anchor="middle" x="572" y="-229.8" font-family="Times,serif" font-size="14.00" fill="#000000">GetUserPipe </text>
</g>
<!-- SharedModule&#45;&gt;GetUserPipe  -->
<g id="edge9" class="edge">
<title>SharedModule&#45;&gt;GetUserPipe </title>
<path fill="none" stroke="#000000" stroke-dasharray="5,2" d="M432.6109,-181C481.3162,-181 548.3515,-181 548.3515,-181 548.3515,-181 548.3515,-205.7604 548.3515,-205.7604"/>
<polygon fill="#000000" stroke="#000000" points="544.8516,-205.7604 548.3515,-215.7604 551.8516,-205.7604 544.8516,-205.7604"/>
</g>
<!-- ObjectCountPipe  -->
<g id="node11" class="node">
<title>ObjectCountPipe </title>
<polygon fill="#fb8072" stroke="#000000" points="508.932,-252 393.068,-252 393.068,-216 508.932,-216 508.932,-252"/>
<text text-anchor="middle" x="451" y="-229.8" font-family="Times,serif" font-size="14.00" fill="#000000">ObjectCountPipe </text>
</g>
<!-- SharedModule&#45;&gt;ObjectCountPipe  -->
<g id="edge10" class="edge">
<title>SharedModule&#45;&gt;ObjectCountPipe </title>
<path fill="none" stroke="#000000" stroke-dasharray="5,2" d="M412.6226,-187.1061C412.6226,-187.1061 412.6226,-205.991 412.6226,-205.991"/>
<polygon fill="#000000" stroke="#000000" points="409.1226,-205.9909 412.6226,-215.991 416.1226,-205.991 409.1226,-205.9909"/>
</g>
<!-- SafeHtmlPipe  -->
<g id="node12" class="node">
<title>SafeHtmlPipe </title>
<polygon fill="#fb8072" stroke="#000000" points="375.0386,-252 276.9614,-252 276.9614,-216 375.0386,-216 375.0386,-252"/>
<text text-anchor="middle" x="326" y="-229.8" font-family="Times,serif" font-size="14.00" fill="#000000">SafeHtmlPipe </text>
</g>
<!-- SharedModule&#45;&gt;SafeHtmlPipe  -->
<g id="edge11" class="edge">
<title>SharedModule&#45;&gt;SafeHtmlPipe </title>
<path fill="none" stroke="#000000" stroke-dasharray="5,2" d="M354.4041,-187.1061C354.4041,-187.1061 354.4041,-205.991 354.4041,-205.991"/>
<polygon fill="#000000" stroke="#000000" points="350.9042,-205.9909 354.4041,-215.991 357.9042,-205.991 350.9042,-205.9909"/>
</g>
<!-- SortPipe  -->
<g id="node13" class="node">
<title>SortPipe </title>
<polygon fill="#fb8072" stroke="#000000" points="258.7222,-252 191.2778,-252 191.2778,-216 258.7222,-216 258.7222,-252"/>
<text text-anchor="middle" x="225" y="-229.8" font-family="Times,serif" font-size="14.00" fill="#000000">SortPipe </text>
</g>
<!-- SharedModule&#45;&gt;SortPipe  -->
<g id="edge12" class="edge">
<title>SharedModule&#45;&gt;SortPipe </title>
<path fill="none" stroke="#000000" stroke-dasharray="5,2" d="M333.7415,-181C291.1224,-181 236.2958,-181 236.2958,-181 236.2958,-181 236.2958,-205.7604 236.2958,-205.7604"/>
<polygon fill="#000000" stroke="#000000" points="232.7958,-205.7604 236.2958,-215.7604 239.7958,-205.7604 232.7958,-205.7604"/>
</g>
<!-- TruncatePipe  -->
<g id="node14" class="node">
<title>TruncatePipe </title>
<polygon fill="#fb8072" stroke="#000000" points="173.1355,-252 78.8645,-252 78.8645,-216 173.1355,-216 173.1355,-252"/>
<text text-anchor="middle" x="126" y="-229.8" font-family="Times,serif" font-size="14.00" fill="#000000">TruncatePipe </text>
</g>
<!-- SharedModule&#45;&gt;TruncatePipe  -->
<g id="edge13" class="edge">
<title>SharedModule&#45;&gt;TruncatePipe </title>
<path fill="none" stroke="#000000" stroke-dasharray="5,2" d="M333.5473,-175C265.8125,-175 152.4785,-175 152.4785,-175 152.4785,-175 152.4785,-205.9775 152.4785,-205.9775"/>
<polygon fill="#000000" stroke="#000000" points="148.9785,-205.9774 152.4785,-215.9775 155.9785,-205.9775 148.9785,-205.9774"/>
</g>
</g>
</svg>
