<?xml version="1.0" encoding="UTF-8" standalone="no"?>
<!DOCTYPE svg PUBLIC "-//W3C//DTD SVG 1.1//EN"
 "http://www.w3.org/Graphics/SVG/1.1/DTD/svg11.dtd">
<!-- Generated by graphviz version 2.40.1 (20161225.0304)
 -->
<!-- Title: dependencies Pages: 1 -->
<svg width="4535pt" height="211pt"
 viewBox="0.00 0.00 4535.00 211.00" xmlns="http://www.w3.org/2000/svg" xmlns:xlink="http://www.w3.org/1999/xlink">
<g id="graph0" class="graph" transform="scale(1 1) rotate(0) translate(4 207)">
<title>dependencies</title>
<polygon fill="#ffffff" stroke="transparent" points="-4,4 -4,-207 4531,-207 4531,4 -4,4"/>
<text text-anchor="start" x="2242.5091" y="-42.4" font-family="sans-serif" font-weight="bold" font-size="14.00" fill="#000000">Legend</text>
<polygon fill="#ffffb3" stroke="transparent" points="2029.5,-10 2029.5,-30 2049.5,-30 2049.5,-10 2029.5,-10"/>
<text text-anchor="start" x="2053.129" y="-15.4" font-family="sans-serif" font-size="14.00" fill="#000000"> &#160;Declarations</text>
<polygon fill="#8dd3c7" stroke="transparent" points="2142.5,-10 2142.5,-30 2162.5,-30 2162.5,-10 2142.5,-10"/>
<text text-anchor="start" x="2166.2251" y="-15.4" font-family="sans-serif" font-size="14.00" fill="#000000"> &#160;Module</text>
<polygon fill="#80b1d3" stroke="transparent" points="2228.5,-10 2228.5,-30 2248.5,-30 2248.5,-10 2228.5,-10"/>
<text text-anchor="start" x="2252.2812" y="-15.4" font-family="sans-serif" font-size="14.00" fill="#000000"> &#160;Bootstrap</text>
<polygon fill="#fdb462" stroke="transparent" points="2325.5,-10 2325.5,-30 2345.5,-30 2345.5,-10 2325.5,-10"/>
<text text-anchor="start" x="2349.1732" y="-15.4" font-family="sans-serif" font-size="14.00" fill="#000000"> &#160;Providers</text>
<polygon fill="#fb8072" stroke="transparent" points="2421.5,-10 2421.5,-30 2441.5,-30 2441.5,-10 2421.5,-10"/>
<text text-anchor="start" x="2445.2258" y="-15.4" font-family="sans-serif" font-size="14.00" fill="#000000"> &#160;Exports</text>
<g id="clust1" class="cluster">
<title>cluster_AdminModule</title>
<polygon fill="none" stroke="#000000" stroke-dasharray="1,5" points="8,-70 8,-195 4519,-195 4519,-70 8,-70"/>
</g>
<g id="clust2" class="cluster">
<title>cluster_AdminModule_declarations</title>
<polygon fill="none" stroke="#000000" points="762,-78 762,-130 4511,-130 4511,-78 762,-78"/>
</g>
<g id="clust24" class="cluster">
<title>cluster_AdminModule_imports</title>
<polygon fill="none" stroke="#000000" points="478,-78 478,-130 754,-130 754,-78 478,-78"/>
</g>
<g id="clust27" class="cluster">
<title>cluster_AdminModule_providers</title>
<polygon fill="none" stroke="#000000" points="16,-78 16,-130 470,-130 470,-78 16,-78"/>
</g>
<!-- AddAdminComponent -->
<g id="node1" class="node">
<title>AddAdminComponent</title>
<polygon fill="#ffffb3" stroke="#000000" points="4503.3272,-122 4358.6728,-122 4358.6728,-86 4503.3272,-86 4503.3272,-122"/>
<text text-anchor="middle" x="4431" y="-99.8" font-family="Times,serif" font-size="14.00" fill="#000000">AddAdminComponent</text>
</g>
<!-- AdminModule -->
<g id="node22" class="node">
<title>AdminModule</title>
<polygon fill="#8dd3c7" stroke="#000000" points="2291.4386,-187 2288.4386,-191 2267.4386,-191 2264.4386,-187 2192.5614,-187 2192.5614,-151 2291.4386,-151 2291.4386,-187"/>
<text text-anchor="middle" x="2242" y="-164.8" font-family="Times,serif" font-size="14.00" fill="#000000">AdminModule</text>
</g>
<!-- AddAdminComponent&#45;&gt;AdminModule -->
<g id="edge1" class="edge">
<title>AddAdminComponent&#45;&gt;AdminModule</title>
<path fill="none" stroke="#000000" d="M4431,-122.3802C4431,-146.2785 4431,-185 4431,-185 4431,-185 2301.3101,-185 2301.3101,-185"/>
<polygon fill="#000000" stroke="#000000" points="2301.3101,-181.5001 2291.3101,-185 2301.31,-188.5001 2301.3101,-181.5001"/>
</g>
<!-- AddCustomerComponent -->
<g id="node2" class="node">
<title>AddCustomerComponent</title>
<polygon fill="#ffffb3" stroke="#000000" points="4340.8766,-122 4181.1234,-122 4181.1234,-86 4340.8766,-86 4340.8766,-122"/>
<text text-anchor="middle" x="4261" y="-99.8" font-family="Times,serif" font-size="14.00" fill="#000000">AddCustomerComponent</text>
</g>
<!-- AddCustomerComponent&#45;&gt;AdminModule -->
<g id="edge2" class="edge">
<title>AddCustomerComponent&#45;&gt;AdminModule</title>
<path fill="none" stroke="#000000" d="M4261,-122.0908C4261,-145.1328 4261,-182 4261,-182 4261,-182 2301.4068,-182 2301.4068,-182"/>
<polygon fill="#000000" stroke="#000000" points="2301.4068,-178.5001 2291.4068,-182 2301.4067,-185.5001 2301.4068,-178.5001"/>
</g>
<!-- AddOrderComponent -->
<g id="node3" class="node">
<title>AddOrderComponent</title>
<polygon fill="#ffffb3" stroke="#000000" points="4163.0814,-122 4024.9186,-122 4024.9186,-86 4163.0814,-86 4163.0814,-122"/>
<text text-anchor="middle" x="4094" y="-99.8" font-family="Times,serif" font-size="14.00" fill="#000000">AddOrderComponent</text>
</g>
<!-- AddOrderComponent&#45;&gt;AdminModule -->
<g id="edge3" class="edge">
<title>AddOrderComponent&#45;&gt;AdminModule</title>
<path fill="none" stroke="#000000" d="M4094,-122.1554C4094,-144.3519 4094,-179 4094,-179 4094,-179 2301.5365,-179 2301.5365,-179"/>
<polygon fill="#000000" stroke="#000000" points="2301.5366,-175.5001 2291.5365,-179 2301.5365,-182.5001 2301.5366,-175.5001"/>
</g>
<!-- AddPageComponent -->
<g id="node4" class="node">
<title>AddPageComponent</title>
<polygon fill="#ffffb3" stroke="#000000" points="4007.1513,-122 3874.8487,-122 3874.8487,-86 4007.1513,-86 4007.1513,-122"/>
<text text-anchor="middle" x="3941" y="-99.8" font-family="Times,serif" font-size="14.00" fill="#000000">AddPageComponent</text>
</g>
<!-- AddPageComponent&#45;&gt;AdminModule -->
<g id="edge4" class="edge">
<title>AddPageComponent&#45;&gt;AdminModule</title>
<path fill="none" stroke="#000000" d="M3941,-122.1686C3941,-143.498 3941,-176 3941,-176 3941,-176 2301.4706,-176 2301.4706,-176"/>
<polygon fill="#000000" stroke="#000000" points="2301.4707,-172.5001 2291.4706,-176 2301.4706,-179.5001 2301.4707,-172.5001"/>
</g>
<!-- AddPostComponent -->
<g id="node5" class="node">
<title>AddPostComponent</title>
<polygon fill="#ffffb3" stroke="#000000" points="3856.5576,-122 3727.4424,-122 3727.4424,-86 3856.5576,-86 3856.5576,-122"/>
<text text-anchor="middle" x="3792" y="-99.8" font-family="Times,serif" font-size="14.00" fill="#000000">AddPostComponent</text>
</g>
<!-- AddPostComponent&#45;&gt;AdminModule -->
<g id="edge5" class="edge">
<title>AddPostComponent&#45;&gt;AdminModule</title>
<path fill="none" stroke="#000000" d="M3792,-122.0267C3792,-142.7672 3792,-174 3792,-174 3792,-174 2301.3812,-174 2301.3812,-174"/>
<polygon fill="#000000" stroke="#000000" points="2301.3813,-170.5001 2291.3812,-174 2301.3812,-177.5001 2301.3813,-170.5001"/>
</g>
<!-- AddProductCategoryComponent -->
<g id="node6" class="node">
<title>AddProductCategoryComponent</title>
<polygon fill="#ffffb3" stroke="#000000" points="3709.3046,-122 3508.6954,-122 3508.6954,-86 3709.3046,-86 3709.3046,-122"/>
<text text-anchor="middle" x="3609" y="-99.8" font-family="Times,serif" font-size="14.00" fill="#000000">AddProductCategoryComponent</text>
</g>
<!-- AddProductCategoryComponent&#45;&gt;AdminModule -->
<g id="edge6" class="edge">
<title>AddProductCategoryComponent&#45;&gt;AdminModule</title>
<path fill="none" stroke="#000000" d="M3609,-122.308C3609,-142.1455 3609,-171 3609,-171 3609,-171 2301.4598,-171 2301.4598,-171"/>
<polygon fill="#000000" stroke="#000000" points="2301.4599,-167.5001 2291.4598,-171 2301.4598,-174.5001 2301.4599,-167.5001"/>
</g>
<!-- AddProductComponent -->
<g id="node7" class="node">
<title>AddProductComponent</title>
<polygon fill="#ffffb3" stroke="#000000" points="3490.4874,-122 3341.5126,-122 3341.5126,-86 3490.4874,-86 3490.4874,-122"/>
<text text-anchor="middle" x="3416" y="-99.8" font-family="Times,serif" font-size="14.00" fill="#000000">AddProductComponent</text>
</g>
<!-- AddProductComponent&#45;&gt;AdminModule -->
<g id="edge7" class="edge">
<title>AddProductComponent&#45;&gt;AdminModule</title>
<path fill="none" stroke="#000000" d="M3416,-122.1686C3416,-141.0898 3416,-168 3416,-168 3416,-168 2301.3224,-168 2301.3224,-168"/>
<polygon fill="#000000" stroke="#000000" points="2301.3225,-164.5001 2291.3224,-168 2301.3224,-171.5001 2301.3225,-164.5001"/>
</g>
<!-- AdminAdminsComponent -->
<g id="node8" class="node">
<title>AdminAdminsComponent</title>
<polygon fill="#ffffb3" stroke="#000000" points="3323.0532,-122 3158.9468,-122 3158.9468,-86 3323.0532,-86 3323.0532,-122"/>
<text text-anchor="middle" x="3241" y="-99.8" font-family="Times,serif" font-size="14.00" fill="#000000">AdminAdminsComponent</text>
</g>
<!-- AdminAdminsComponent&#45;&gt;AdminModule -->
<g id="edge8" class="edge">
<title>AdminAdminsComponent&#45;&gt;AdminModule</title>
<path fill="none" stroke="#000000" d="M3241,-122.302C3241,-140.2699 3241,-165 3241,-165 3241,-165 2301.5406,-165 2301.5406,-165"/>
<polygon fill="#000000" stroke="#000000" points="2301.5406,-161.5001 2291.5406,-165 2301.5405,-168.5001 2301.5406,-161.5001"/>
</g>
<!-- AdminApprovalsComponent -->
<g id="node9" class="node">
<title>AdminApprovalsComponent</title>
<polygon fill="#ffffb3" stroke="#000000" points="3140.0378,-122 2961.9622,-122 2961.9622,-86 3140.0378,-86 3140.0378,-122"/>
<text text-anchor="middle" x="3051" y="-99.8" font-family="Times,serif" font-size="14.00" fill="#000000">AdminApprovalsComponent</text>
</g>
<!-- AdminApprovalsComponent&#45;&gt;AdminModule -->
<g id="edge9" class="edge">
<title>AdminApprovalsComponent&#45;&gt;AdminModule</title>
<path fill="none" stroke="#000000" d="M3051,-122.0225C3051,-139.3734 3051,-163 3051,-163 3051,-163 2301.3888,-163 2301.3888,-163"/>
<polygon fill="#000000" stroke="#000000" points="2301.3888,-159.5001 2291.3888,-163 2301.3887,-166.5001 2301.3888,-159.5001"/>
</g>
<!-- AdminComponent -->
<g id="node10" class="node">
<title>AdminComponent</title>
<polygon fill="#ffffb3" stroke="#000000" points="2944.2204,-122 2823.7796,-122 2823.7796,-86 2944.2204,-86 2944.2204,-122"/>
<text text-anchor="middle" x="2884" y="-99.8" font-family="Times,serif" font-size="14.00" fill="#000000">AdminComponent</text>
</g>
<!-- AdminComponent&#45;&gt;AdminModule -->
<g id="edge10" class="edge">
<title>AdminComponent&#45;&gt;AdminModule</title>
<path fill="none" stroke="#000000" d="M2884,-122.027C2884,-138.3976 2884,-160 2884,-160 2884,-160 2301.3107,-160 2301.3107,-160"/>
<polygon fill="#000000" stroke="#000000" points="2301.3107,-156.5001 2291.3107,-160 2301.3106,-163.5001 2301.3107,-156.5001"/>
</g>
<!-- AdminCustomersComponent -->
<g id="node11" class="node">
<title>AdminCustomersComponent</title>
<polygon fill="#ffffb3" stroke="#000000" points="2806.1024,-122 2625.8976,-122 2625.8976,-86 2806.1024,-86 2806.1024,-122"/>
<text text-anchor="middle" x="2716" y="-99.8" font-family="Times,serif" font-size="14.00" fill="#000000">AdminCustomersComponent</text>
</g>
<!-- AdminCustomersComponent&#45;&gt;AdminModule -->
<g id="edge11" class="edge">
<title>AdminCustomersComponent&#45;&gt;AdminModule</title>
<path fill="none" stroke="#000000" d="M2716,-122.2396C2716,-137.5706 2716,-157 2716,-157 2716,-157 2301.3849,-157 2301.3849,-157"/>
<polygon fill="#000000" stroke="#000000" points="2301.3849,-153.5001 2291.3849,-157 2301.3849,-160.5001 2301.3849,-153.5001"/>
</g>
<!-- AdminDashboardComponent -->
<g id="node12" class="node">
<title>AdminDashboardComponent</title>
<polygon fill="#ffffb3" stroke="#000000" points="2608.3613,-122 2427.6387,-122 2427.6387,-86 2608.3613,-86 2608.3613,-122"/>
<text text-anchor="middle" x="2518" y="-99.8" font-family="Times,serif" font-size="14.00" fill="#000000">AdminDashboardComponent</text>
</g>
<!-- AdminDashboardComponent&#45;&gt;AdminModule -->
<g id="edge12" class="edge">
<title>AdminDashboardComponent&#45;&gt;AdminModule</title>
<path fill="none" stroke="#000000" d="M2518,-122.0511C2518,-136.373 2518,-154 2518,-154 2518,-154 2301.3433,-154 2301.3433,-154"/>
<polygon fill="#000000" stroke="#000000" points="2301.3433,-150.5001 2291.3433,-154 2301.3432,-157.5001 2301.3433,-150.5001"/>
</g>
<!-- AdminMenusComponent -->
<g id="node13" class="node">
<title>AdminMenusComponent</title>
<polygon fill="#ffffb3" stroke="#000000" points="2409.3243,-122 2250.6757,-122 2250.6757,-86 2409.3243,-86 2409.3243,-122"/>
<text text-anchor="middle" x="2330" y="-99.8" font-family="Times,serif" font-size="14.00" fill="#000000">AdminMenusComponent</text>
</g>
<!-- AdminMenusComponent&#45;&gt;AdminModule -->
<g id="edge13" class="edge">
<title>AdminMenusComponent&#45;&gt;AdminModule</title>
<path fill="none" stroke="#000000" d="M2271.0284,-122.1061C2271.0284,-122.1061 2271.0284,-140.991 2271.0284,-140.991"/>
<polygon fill="#000000" stroke="#000000" points="2267.5285,-140.9909 2271.0284,-150.991 2274.5285,-140.991 2267.5285,-140.9909"/>
</g>
<!-- AdminOrdersComponent -->
<g id="node14" class="node">
<title>AdminOrdersComponent</title>
<polygon fill="#ffffb3" stroke="#000000" points="2233.3075,-122 2074.6925,-122 2074.6925,-86 2233.3075,-86 2233.3075,-122"/>
<text text-anchor="middle" x="2154" y="-99.8" font-family="Times,serif" font-size="14.00" fill="#000000">AdminOrdersComponent</text>
</g>
<!-- AdminOrdersComponent&#45;&gt;AdminModule -->
<g id="edge14" class="edge">
<title>AdminOrdersComponent&#45;&gt;AdminModule</title>
<path fill="none" stroke="#000000" d="M2212.9674,-122.1061C2212.9674,-122.1061 2212.9674,-140.991 2212.9674,-140.991"/>
<polygon fill="#000000" stroke="#000000" points="2209.4675,-140.9909 2212.9674,-150.991 2216.4675,-140.991 2209.4675,-140.9909"/>
</g>
<!-- AdminPagesComponent -->
<g id="node15" class="node">
<title>AdminPagesComponent</title>
<polygon fill="#ffffb3" stroke="#000000" points="2056.3766,-122 1903.6234,-122 1903.6234,-86 2056.3766,-86 2056.3766,-122"/>
<text text-anchor="middle" x="1980" y="-99.8" font-family="Times,serif" font-size="14.00" fill="#000000">AdminPagesComponent</text>
</g>
<!-- AdminPagesComponent&#45;&gt;AdminModule -->
<g id="edge15" class="edge">
<title>AdminPagesComponent&#45;&gt;AdminModule</title>
<path fill="none" stroke="#000000" d="M1980,-122.0511C1980,-136.373 1980,-154 1980,-154 1980,-154 2182.7198,-154 2182.7198,-154"/>
<polygon fill="#000000" stroke="#000000" points="2182.7198,-157.5001 2192.7198,-154 2182.7198,-150.5001 2182.7198,-157.5001"/>
</g>
<!-- AdminPostsComponent -->
<g id="node16" class="node">
<title>AdminPostsComponent</title>
<polygon fill="#ffffb3" stroke="#000000" points="1885.7828,-122 1736.2172,-122 1736.2172,-86 1885.7828,-86 1885.7828,-122"/>
<text text-anchor="middle" x="1811" y="-99.8" font-family="Times,serif" font-size="14.00" fill="#000000">AdminPostsComponent</text>
</g>
<!-- AdminPostsComponent&#45;&gt;AdminModule -->
<g id="edge16" class="edge">
<title>AdminPostsComponent&#45;&gt;AdminModule</title>
<path fill="none" stroke="#000000" d="M1811,-122.2396C1811,-137.5706 1811,-157 1811,-157 1811,-157 2182.5588,-157 2182.5588,-157"/>
<polygon fill="#000000" stroke="#000000" points="2182.5589,-160.5001 2192.5588,-157 2182.5588,-153.5001 2182.5589,-160.5001"/>
</g>
<!-- AdminProductCategoriesComponent -->
<g id="node17" class="node">
<title>AdminProductCategoriesComponent</title>
<polygon fill="#ffffb3" stroke="#000000" points="1717.6357,-122 1494.3643,-122 1494.3643,-86 1717.6357,-86 1717.6357,-122"/>
<text text-anchor="middle" x="1606" y="-99.8" font-family="Times,serif" font-size="14.00" fill="#000000">AdminProductCategoriesComponent</text>
</g>
<!-- AdminProductCategoriesComponent&#45;&gt;AdminModule -->
<g id="edge17" class="edge">
<title>AdminProductCategoriesComponent&#45;&gt;AdminModule</title>
<path fill="none" stroke="#000000" d="M1606,-122.027C1606,-138.3976 1606,-160 1606,-160 1606,-160 2182.6234,-160 2182.6234,-160"/>
<polygon fill="#000000" stroke="#000000" points="2182.6234,-163.5001 2192.6234,-160 2182.6233,-156.5001 2182.6234,-163.5001"/>
</g>
<!-- AdminProductsComponent -->
<g id="node18" class="node">
<title>AdminProductsComponent</title>
<polygon fill="#ffffb3" stroke="#000000" points="1476.7133,-122 1307.2867,-122 1307.2867,-86 1476.7133,-86 1476.7133,-122"/>
<text text-anchor="middle" x="1392" y="-99.8" font-family="Times,serif" font-size="14.00" fill="#000000">AdminProductsComponent</text>
</g>
<!-- AdminProductsComponent&#45;&gt;AdminModule -->
<g id="edge18" class="edge">
<title>AdminProductsComponent&#45;&gt;AdminModule</title>
<path fill="none" stroke="#000000" d="M1392,-122.0225C1392,-139.3734 1392,-163 1392,-163 1392,-163 2182.6264,-163 2182.6264,-163"/>
<polygon fill="#000000" stroke="#000000" points="2182.6264,-166.5001 2192.6264,-163 2182.6264,-159.5001 2182.6264,-166.5001"/>
</g>
<!-- AdminThemeComponent -->
<g id="node19" class="node">
<title>AdminThemeComponent</title>
<polygon fill="#ffffb3" stroke="#000000" points="1289.5926,-122 1130.4074,-122 1130.4074,-86 1289.5926,-86 1289.5926,-122"/>
<text text-anchor="middle" x="1210" y="-99.8" font-family="Times,serif" font-size="14.00" fill="#000000">AdminThemeComponent</text>
</g>
<!-- AdminThemeComponent&#45;&gt;AdminModule -->
<g id="edge19" class="edge">
<title>AdminThemeComponent&#45;&gt;AdminModule</title>
<path fill="none" stroke="#000000" d="M1210,-122.302C1210,-140.2699 1210,-165 1210,-165 1210,-165 2182.5722,-165 2182.5722,-165"/>
<polygon fill="#000000" stroke="#000000" points="2182.5722,-168.5001 2192.5722,-165 2182.5721,-161.5001 2182.5722,-168.5001"/>
</g>
<!-- ApproveDialogComponent -->
<g id="node20" class="node">
<title>ApproveDialogComponent</title>
<polygon fill="#ffffb3" stroke="#000000" points="1112.4171,-122 943.5829,-122 943.5829,-86 1112.4171,-86 1112.4171,-122"/>
<text text-anchor="middle" x="1028" y="-99.8" font-family="Times,serif" font-size="14.00" fill="#000000">ApproveDialogComponent</text>
</g>
<!-- ApproveDialogComponent&#45;&gt;AdminModule -->
<g id="edge20" class="edge">
<title>ApproveDialogComponent&#45;&gt;AdminModule</title>
<path fill="none" stroke="#000000" d="M1028,-122.1686C1028,-141.0898 1028,-168 1028,-168 1028,-168 2182.527,-168 2182.527,-168"/>
<polygon fill="#000000" stroke="#000000" points="2182.527,-171.5001 2192.527,-168 2182.5269,-164.5001 2182.527,-171.5001"/>
</g>
<!-- DeleteDialogComponent -->
<g id="node21" class="node">
<title>DeleteDialogComponent</title>
<polygon fill="#ffffb3" stroke="#000000" points="925.9664,-122 770.0336,-122 770.0336,-86 925.9664,-86 925.9664,-122"/>
<text text-anchor="middle" x="848" y="-99.8" font-family="Times,serif" font-size="14.00" fill="#000000">DeleteDialogComponent</text>
</g>
<!-- DeleteDialogComponent&#45;&gt;AdminModule -->
<g id="edge21" class="edge">
<title>DeleteDialogComponent&#45;&gt;AdminModule</title>
<path fill="none" stroke="#000000" d="M848,-122.308C848,-142.1455 848,-171 848,-171 848,-171 2182.3868,-171 2182.3868,-171"/>
<polygon fill="#000000" stroke="#000000" points="2182.3868,-174.5001 2192.3868,-171 2182.3868,-167.5001 2182.3868,-174.5001"/>
</g>
<!-- AdminRoutingModule -->
<g id="node23" class="node">
<title>AdminRoutingModule</title>
<polygon fill="#8dd3c7" stroke="#000000" points="745.5561,-122 742.5561,-126 721.5561,-126 718.5561,-122 602.4439,-122 602.4439,-86 745.5561,-86 745.5561,-122"/>
<text text-anchor="middle" x="674" y="-99.8" font-family="Times,serif" font-size="14.00" fill="#000000">AdminRoutingModule</text>
</g>
<!-- AdminRoutingModule&#45;&gt;AdminModule -->
<g id="edge22" class="edge">
<title>AdminRoutingModule&#45;&gt;AdminModule</title>
<path fill="none" stroke="#000000" d="M674,-122.0267C674,-142.7672 674,-174 674,-174 674,-174 2182.4831,-174 2182.4831,-174"/>
<polygon fill="#000000" stroke="#000000" points="2182.4832,-177.5001 2192.4831,-174 2182.4831,-170.5001 2182.4832,-177.5001"/>
</g>
<!-- SharedModule -->
<g id="node24" class="node">
<title>SharedModule</title>
<polygon fill="#8dd3c7" stroke="#000000" points="584.4231,-122 581.4231,-126 560.4231,-126 557.4231,-122 485.5769,-122 485.5769,-86 584.4231,-86 584.4231,-122"/>
<text text-anchor="middle" x="535" y="-99.8" font-family="Times,serif" font-size="14.00" fill="#000000">SharedModule</text>
</g>
<!-- SharedModule&#45;&gt;AdminModule -->
<g id="edge23" class="edge">
<title>SharedModule&#45;&gt;AdminModule</title>
<path fill="none" stroke="#000000" d="M535,-122.1686C535,-143.498 535,-176 535,-176 535,-176 2182.7537,-176 2182.7537,-176"/>
<polygon fill="#000000" stroke="#000000" points="2182.7538,-179.5001 2192.7537,-176 2182.7537,-172.5001 2182.7538,-179.5001"/>
</g>
<!-- AdminGuard -->
<g id="node25" class="node">
<title>AdminGuard</title>
<ellipse fill="#fdb462" stroke="#000000" cx="400" cy="-104" rx="61.9808" ry="18"/>
<text text-anchor="middle" x="400" y="-99.8" font-family="Times,serif" font-size="14.00" fill="#000000">AdminGuard</text>
</g>
<!-- AdminGuard&#45;&gt;AdminModule -->
<g id="edge24" class="edge">
<title>AdminGuard&#45;&gt;AdminModule</title>
<path fill="none" stroke="#000000" d="M400,-122.1554C400,-144.3519 400,-179 400,-179 400,-179 2182.7309,-179 2182.7309,-179"/>
<polygon fill="#000000" stroke="#000000" points="2182.731,-182.5001 2192.7309,-179 2182.7309,-175.5001 2182.731,-182.5001"/>
</g>
<!-- AuthGuard -->
<g id="node26" class="node">
<title>AuthGuard</title>
<ellipse fill="#fdb462" stroke="#000000" cx="266" cy="-104" rx="54.4566" ry="18"/>
<text text-anchor="middle" x="266" y="-99.8" font-family="Times,serif" font-size="14.00" fill="#000000">AuthGuard</text>
</g>
<!-- AuthGuard&#45;&gt;AdminModule -->
<g id="edge25" class="edge">
<title>AuthGuard&#45;&gt;AdminModule</title>
<path fill="none" stroke="#000000" d="M266,-122.0908C266,-145.1328 266,-182 266,-182 266,-182 2182.6618,-182 2182.6618,-182"/>
<polygon fill="#000000" stroke="#000000" points="2182.6618,-185.5001 2192.6618,-182 2182.6618,-178.5001 2182.6618,-185.5001"/>
</g>
<!-- SuperAdminGuard -->
<g id="node27" class="node">
<title>SuperAdminGuard</title>
<ellipse fill="#fdb462" stroke="#000000" cx="109" cy="-104" rx="84.5343" ry="18"/>
<text text-anchor="middle" x="109" y="-99.8" font-family="Times,serif" font-size="14.00" fill="#000000">SuperAdminGuard</text>
</g>
<!-- SuperAdminGuard&#45;&gt;AdminModule -->
<g id="edge26" class="edge">
<title>SuperAdminGuard&#45;&gt;AdminModule</title>
<path fill="none" stroke="#000000" d="M109,-122.3802C109,-146.2785 109,-185 109,-185 109,-185 2182.6724,-185 2182.6724,-185"/>
<polygon fill="#000000" stroke="#000000" points="2182.6724,-188.5001 2192.6724,-185 2182.6723,-181.5001 2182.6724,-188.5001"/>
</g>
</g>
</svg>
