<?xml version="1.0" encoding="UTF-8" standalone="no"?>
<!DOCTYPE svg PUBLIC "-//W3C//DTD SVG 1.1//EN"
 "http://www.w3.org/Graphics/SVG/1.1/DTD/svg11.dtd">
<!-- Generated by graphviz version 2.40.1 (20161225.0304)
 -->
<!-- Title: dependencies Pages: 1 -->
<svg width="3883pt" height="284pt"
 viewBox="0.00 0.00 3883.00 284.00" xmlns="http://www.w3.org/2000/svg" xmlns:xlink="http://www.w3.org/1999/xlink">
<g id="graph0" class="graph" transform="scale(1 1) rotate(0) translate(4 280)">
<title>dependencies</title>
<polygon fill="#ffffff" stroke="transparent" points="-4,4 -4,-280 3879,-280 3879,4 -4,4"/>
<text text-anchor="start" x="1916.5091" y="-42.4" font-family="sans-serif" font-weight="bold" font-size="14.00" fill="#000000">Legend</text>
<polygon fill="#ffffb3" stroke="transparent" points="1703.5,-10 1703.5,-30 1723.5,-30 1723.5,-10 1703.5,-10"/>
<text text-anchor="start" x="1727.129" y="-15.4" font-family="sans-serif" font-size="14.00" fill="#000000"> &#160;Declarations</text>
<polygon fill="#8dd3c7" stroke="transparent" points="1816.5,-10 1816.5,-30 1836.5,-30 1836.5,-10 1816.5,-10"/>
<text text-anchor="start" x="1840.2251" y="-15.4" font-family="sans-serif" font-size="14.00" fill="#000000"> &#160;Module</text>
<polygon fill="#80b1d3" stroke="transparent" points="1902.5,-10 1902.5,-30 1922.5,-30 1922.5,-10 1902.5,-10"/>
<text text-anchor="start" x="1926.2812" y="-15.4" font-family="sans-serif" font-size="14.00" fill="#000000"> &#160;Bootstrap</text>
<polygon fill="#fdb462" stroke="transparent" points="1999.5,-10 1999.5,-30 2019.5,-30 2019.5,-10 1999.5,-10"/>
<text text-anchor="start" x="2023.1732" y="-15.4" font-family="sans-serif" font-size="14.00" fill="#000000"> &#160;Providers</text>
<polygon fill="#fb8072" stroke="transparent" points="2095.5,-10 2095.5,-30 2115.5,-30 2115.5,-10 2095.5,-10"/>
<text text-anchor="start" x="2119.2258" y="-15.4" font-family="sans-serif" font-size="14.00" fill="#000000"> &#160;Exports</text>
<g id="clust1" class="cluster">
<title>cluster_AppModule</title>
<polygon fill="none" stroke="#000000" stroke-dasharray="1,5" points="8,-70 8,-268 3867,-268 3867,-70 8,-70"/>
</g>
<g id="clust2" class="cluster">
<title>cluster_AppModule_declarations</title>
<polygon fill="none" stroke="#000000" points="617,-78 617,-130 3859,-130 3859,-78 617,-78"/>
</g>
<g id="clust23" class="cluster">
<title>cluster_AppModule_imports</title>
<polygon fill="none" stroke="#000000" points="348,-78 348,-130 609,-130 609,-78 348,-78"/>
</g>
<g id="clust25" class="cluster">
<title>cluster_AppModule_bootstrap</title>
<polygon fill="none" stroke="#000000" points="1855,-208 1855,-260 1979,-260 1979,-208 1855,-208"/>
</g>
<g id="clust26" class="cluster">
<title>cluster_AppModule_providers</title>
<polygon fill="none" stroke="#000000" points="16,-78 16,-130 340,-130 340,-78 16,-78"/>
</g>
<!-- AppComponent -->
<g id="node1" class="node">
<title>AppComponent</title>
<polygon fill="#ffffb3" stroke="#000000" points="3850.9399,-122 3745.0601,-122 3745.0601,-86 3850.9399,-86 3850.9399,-122"/>
<text text-anchor="middle" x="3798" y="-99.8" font-family="Times,serif" font-size="14.00" fill="#000000">AppComponent</text>
</g>
<!-- AppModule -->
<g id="node21" class="node">
<title>AppModule</title>
<polygon fill="#8dd3c7" stroke="#000000" points="1958.6571,-187 1955.6571,-191 1934.6571,-191 1931.6571,-187 1875.3429,-187 1875.3429,-151 1958.6571,-151 1958.6571,-187"/>
<text text-anchor="middle" x="1917" y="-164.8" font-family="Times,serif" font-size="14.00" fill="#000000">AppModule</text>
</g>
<!-- AppComponent&#45;&gt;AppModule -->
<g id="edge1" class="edge">
<title>AppComponent&#45;&gt;AppModule</title>
<path fill="none" stroke="#000000" d="M3798,-122.1532C3798,-145.7566 3798,-184 3798,-184 3798,-184 1968.9247,-184 1968.9247,-184"/>
<polygon fill="#000000" stroke="#000000" points="1968.9247,-180.5001 1958.9247,-184 1968.9246,-187.5001 1968.9247,-180.5001"/>
</g>
<!-- CartComponent -->
<g id="node2" class="node">
<title>CartComponent</title>
<polygon fill="#ffffb3" stroke="#000000" points="3727.9357,-122 3622.0643,-122 3622.0643,-86 3727.9357,-86 3727.9357,-122"/>
<text text-anchor="middle" x="3675" y="-99.8" font-family="Times,serif" font-size="14.00" fill="#000000">CartComponent</text>
</g>
<!-- CartComponent&#45;&gt;AppModule -->
<g id="edge2" class="edge">
<title>CartComponent&#45;&gt;AppModule</title>
<path fill="none" stroke="#000000" d="M3675,-122.2479C3675,-145.0179 3675,-181 3675,-181 3675,-181 1968.7225,-181 1968.7225,-181"/>
<polygon fill="#000000" stroke="#000000" points="1968.7225,-177.5001 1958.7225,-181 1968.7224,-184.5001 1968.7225,-177.5001"/>
</g>
<!-- CartIconComponent -->
<g id="node3" class="node">
<title>CartIconComponent</title>
<polygon fill="#ffffb3" stroke="#000000" points="3604.3104,-122 3473.6896,-122 3473.6896,-86 3604.3104,-86 3604.3104,-122"/>
<text text-anchor="middle" x="3539" y="-99.8" font-family="Times,serif" font-size="14.00" fill="#000000">CartIconComponent</text>
</g>
<!-- CartIconComponent&#45;&gt;AppModule -->
<g id="edge3" class="edge">
<title>CartIconComponent&#45;&gt;AppModule</title>
<path fill="none" stroke="#000000" d="M3539,-122.2921C3539,-144.2057 3539,-178 3539,-178 3539,-178 1968.7246,-178 1968.7246,-178"/>
<polygon fill="#000000" stroke="#000000" points="1968.7246,-174.5001 1958.7246,-178 1968.7245,-181.5001 1968.7246,-174.5001"/>
</g>
<!-- CheckoutBillingComponent -->
<g id="node4" class="node">
<title>CheckoutBillingComponent</title>
<polygon fill="#ffffb3" stroke="#000000" points="3455.8878,-122 3282.1122,-122 3282.1122,-86 3455.8878,-86 3455.8878,-122"/>
<text text-anchor="middle" x="3369" y="-99.8" font-family="Times,serif" font-size="14.00" fill="#000000">CheckoutBillingComponent</text>
</g>
<!-- CheckoutBillingComponent&#45;&gt;AppModule -->
<g id="edge4" class="edge">
<title>CheckoutBillingComponent&#45;&gt;AppModule</title>
<path fill="none" stroke="#000000" d="M3369,-122.2843C3369,-143.3211 3369,-175 3369,-175 3369,-175 1968.8896,-175 1968.8896,-175"/>
<polygon fill="#000000" stroke="#000000" points="1968.8897,-171.5001 1958.8896,-175 1968.8896,-178.5001 1968.8897,-171.5001"/>
</g>
<!-- CheckoutConfirmationComponent -->
<g id="node5" class="node">
<title>CheckoutConfirmationComponent</title>
<polygon fill="#ffffb3" stroke="#000000" points="3264.424,-122 3053.576,-122 3053.576,-86 3264.424,-86 3264.424,-122"/>
<text text-anchor="middle" x="3159" y="-99.8" font-family="Times,serif" font-size="14.00" fill="#000000">CheckoutConfirmationComponent</text>
</g>
<!-- CheckoutConfirmationComponent&#45;&gt;AppModule -->
<g id="edge5" class="edge">
<title>CheckoutConfirmationComponent&#45;&gt;AppModule</title>
<path fill="none" stroke="#000000" d="M3159,-122.2228C3159,-142.3652 3159,-172 3159,-172 3159,-172 1968.6787,-172 1968.6787,-172"/>
<polygon fill="#000000" stroke="#000000" points="1968.6787,-168.5001 1958.6787,-172 1968.6787,-175.5001 1968.6787,-168.5001"/>
</g>
<!-- CheckoutPaymentComponent -->
<g id="node6" class="node">
<title>CheckoutPaymentComponent</title>
<polygon fill="#ffffb3" stroke="#000000" points="3035.9818,-122 2852.0182,-122 2852.0182,-86 3035.9818,-86 3035.9818,-122"/>
<text text-anchor="middle" x="2944" y="-99.8" font-family="Times,serif" font-size="14.00" fill="#000000">CheckoutPaymentComponent</text>
</g>
<!-- CheckoutPaymentComponent&#45;&gt;AppModule -->
<g id="edge6" class="edge">
<title>CheckoutPaymentComponent&#45;&gt;AppModule</title>
<path fill="none" stroke="#000000" d="M2944,-122.1061C2944,-141.3391 2944,-169 2944,-169 2944,-169 1968.8524,-169 1968.8524,-169"/>
<polygon fill="#000000" stroke="#000000" points="1968.8524,-165.5001 1958.8524,-169 1968.8523,-172.5001 1968.8524,-165.5001"/>
</g>
<!-- CheckoutReviewComponent -->
<g id="node7" class="node">
<title>CheckoutReviewComponent</title>
<polygon fill="#ffffb3" stroke="#000000" points="2833.752,-122 2656.248,-122 2656.248,-86 2833.752,-86 2833.752,-122"/>
<text text-anchor="middle" x="2745" y="-99.8" font-family="Times,serif" font-size="14.00" fill="#000000">CheckoutReviewComponent</text>
</g>
<!-- CheckoutReviewComponent&#45;&gt;AppModule -->
<g id="edge7" class="edge">
<title>CheckoutReviewComponent&#45;&gt;AppModule</title>
<path fill="none" stroke="#000000" d="M2745,-122.2667C2745,-140.5552 2745,-166 2745,-166 2745,-166 1968.9131,-166 1968.9131,-166"/>
<polygon fill="#000000" stroke="#000000" points="1968.9131,-162.5001 1958.9131,-166 1968.9131,-169.5001 1968.9131,-162.5001"/>
</g>
<!-- CheckoutShippingComponent -->
<g id="node8" class="node">
<title>CheckoutShippingComponent</title>
<polygon fill="#ffffb3" stroke="#000000" points="2637.5531,-122 2452.4469,-122 2452.4469,-86 2637.5531,-86 2637.5531,-122"/>
<text text-anchor="middle" x="2545" y="-99.8" font-family="Times,serif" font-size="14.00" fill="#000000">CheckoutShippingComponent</text>
</g>
<!-- CheckoutShippingComponent&#45;&gt;AppModule -->
<g id="edge8" class="edge">
<title>CheckoutShippingComponent&#45;&gt;AppModule</title>
<path fill="none" stroke="#000000" d="M2545,-122.0225C2545,-139.3734 2545,-163 2545,-163 2545,-163 1968.6912,-163 1968.6912,-163"/>
<polygon fill="#000000" stroke="#000000" points="1968.6912,-159.5001 1958.6912,-163 1968.6911,-166.5001 1968.6912,-159.5001"/>
</g>
<!-- LoginComponent -->
<g id="node9" class="node">
<title>LoginComponent</title>
<polygon fill="#ffffb3" stroke="#000000" points="2434.2758,-122 2319.7242,-122 2319.7242,-86 2434.2758,-86 2434.2758,-122"/>
<text text-anchor="middle" x="2377" y="-99.8" font-family="Times,serif" font-size="14.00" fill="#000000">LoginComponent</text>
</g>
<!-- LoginComponent&#45;&gt;AppModule -->
<g id="edge9" class="edge">
<title>LoginComponent&#45;&gt;AppModule</title>
<path fill="none" stroke="#000000" d="M2377,-122.027C2377,-138.3976 2377,-160 2377,-160 2377,-160 1969.0414,-160 1969.0414,-160"/>
<polygon fill="#000000" stroke="#000000" points="1969.0414,-156.5001 1959.0414,-160 1969.0413,-163.5001 1969.0414,-156.5001"/>
</g>
<!-- OrdersComponent -->
<g id="node10" class="node">
<title>OrdersComponent</title>
<polygon fill="#ffffb3" stroke="#000000" points="2301.9201,-122 2182.0799,-122 2182.0799,-86 2301.9201,-86 2301.9201,-122"/>
<text text-anchor="middle" x="2242" y="-99.8" font-family="Times,serif" font-size="14.00" fill="#000000">OrdersComponent</text>
</g>
<!-- OrdersComponent&#45;&gt;AppModule -->
<g id="edge10" class="edge">
<title>OrdersComponent&#45;&gt;AppModule</title>
<path fill="none" stroke="#000000" d="M2242,-122.2396C2242,-137.5706 2242,-157 2242,-157 2242,-157 1968.8227,-157 1968.8227,-157"/>
<polygon fill="#000000" stroke="#000000" points="1968.8228,-153.5001 1958.8227,-157 1968.8227,-160.5001 1968.8228,-153.5001"/>
</g>
<!-- PageComponent -->
<g id="node11" class="node">
<title>PageComponent</title>
<polygon fill="#ffffb3" stroke="#000000" points="2164.0452,-122 2055.9548,-122 2055.9548,-86 2164.0452,-86 2164.0452,-122"/>
<text text-anchor="middle" x="2110" y="-99.8" font-family="Times,serif" font-size="14.00" fill="#000000">PageComponent</text>
</g>
<!-- PageComponent&#45;&gt;AppModule -->
<g id="edge11" class="edge">
<title>PageComponent&#45;&gt;AppModule</title>
<path fill="none" stroke="#000000" d="M2110,-122.0511C2110,-136.373 2110,-154 2110,-154 2110,-154 1968.8781,-154 1968.8781,-154"/>
<polygon fill="#000000" stroke="#000000" points="1968.8782,-150.5001 1958.8781,-154 1968.8781,-157.5001 1968.8782,-150.5001"/>
</g>
<!-- PagesComponent -->
<g id="node12" class="node">
<title>PagesComponent</title>
<polygon fill="#ffffb3" stroke="#000000" points="2037.9888,-122 1924.0112,-122 1924.0112,-86 2037.9888,-86 2037.9888,-122"/>
<text text-anchor="middle" x="1981" y="-99.8" font-family="Times,serif" font-size="14.00" fill="#000000">PagesComponent</text>
</g>
<!-- PagesComponent&#45;&gt;AppModule -->
<g id="edge12" class="edge">
<title>PagesComponent&#45;&gt;AppModule</title>
<path fill="none" stroke="#000000" d="M1941.4169,-122.1061C1941.4169,-122.1061 1941.4169,-140.991 1941.4169,-140.991"/>
<polygon fill="#000000" stroke="#000000" points="1937.917,-140.9909 1941.4169,-150.991 1944.917,-140.991 1937.917,-140.9909"/>
</g>
<!-- PostComponent -->
<g id="node13" class="node">
<title>PostComponent</title>
<polygon fill="#ffffb3" stroke="#000000" points="1905.9512,-122 1800.0488,-122 1800.0488,-86 1905.9512,-86 1905.9512,-122"/>
<text text-anchor="middle" x="1853" y="-99.8" font-family="Times,serif" font-size="14.00" fill="#000000">PostComponent</text>
</g>
<!-- PostComponent&#45;&gt;AppModule -->
<g id="edge13" class="edge">
<title>PostComponent&#45;&gt;AppModule</title>
<path fill="none" stroke="#000000" d="M1890.4485,-122.1061C1890.4485,-122.1061 1890.4485,-140.991 1890.4485,-140.991"/>
<polygon fill="#000000" stroke="#000000" points="1886.9485,-140.9909 1890.4485,-150.991 1893.9485,-140.991 1886.9485,-140.9909"/>
</g>
<!-- PostsComponent -->
<g id="node14" class="node">
<title>PostsComponent</title>
<polygon fill="#ffffb3" stroke="#000000" points="1782.3948,-122 1671.6052,-122 1671.6052,-86 1782.3948,-86 1782.3948,-122"/>
<text text-anchor="middle" x="1727" y="-99.8" font-family="Times,serif" font-size="14.00" fill="#000000">PostsComponent</text>
</g>
<!-- PostsComponent&#45;&gt;AppModule -->
<g id="edge14" class="edge">
<title>PostsComponent&#45;&gt;AppModule</title>
<path fill="none" stroke="#000000" d="M1727,-122.0511C1727,-136.373 1727,-154 1727,-154 1727,-154 1865.3037,-154 1865.3037,-154"/>
<polygon fill="#000000" stroke="#000000" points="1865.3037,-157.5001 1875.3037,-154 1865.3037,-150.5001 1865.3037,-157.5001"/>
</g>
<!-- ProductCategoriesComponent -->
<g id="node15" class="node">
<title>ProductCategoriesComponent</title>
<polygon fill="#ffffb3" stroke="#000000" points="1653.2478,-122 1468.7522,-122 1468.7522,-86 1653.2478,-86 1653.2478,-122"/>
<text text-anchor="middle" x="1561" y="-99.8" font-family="Times,serif" font-size="14.00" fill="#000000">ProductCategoriesComponent</text>
</g>
<!-- ProductCategoriesComponent&#45;&gt;AppModule -->
<g id="edge15" class="edge">
<title>ProductCategoriesComponent&#45;&gt;AppModule</title>
<path fill="none" stroke="#000000" d="M1561,-122.2396C1561,-137.5706 1561,-157 1561,-157 1561,-157 1865.1154,-157 1865.1154,-157"/>
<polygon fill="#000000" stroke="#000000" points="1865.1155,-160.5001 1875.1154,-157 1865.1154,-153.5001 1865.1155,-160.5001"/>
</g>
<!-- ProductCategoryComponent -->
<g id="node16" class="node">
<title>ProductCategoryComponent</title>
<polygon fill="#ffffb3" stroke="#000000" points="1451.1979,-122 1274.8021,-122 1274.8021,-86 1451.1979,-86 1451.1979,-122"/>
<text text-anchor="middle" x="1363" y="-99.8" font-family="Times,serif" font-size="14.00" fill="#000000">ProductCategoryComponent</text>
</g>
<!-- ProductCategoryComponent&#45;&gt;AppModule -->
<g id="edge16" class="edge">
<title>ProductCategoryComponent&#45;&gt;AppModule</title>
<path fill="none" stroke="#000000" d="M1363,-122.027C1363,-138.3976 1363,-160 1363,-160 1363,-160 1864.9052,-160 1864.9052,-160"/>
<polygon fill="#000000" stroke="#000000" points="1864.9053,-163.5001 1874.9052,-160 1864.9052,-156.5001 1864.9053,-163.5001"/>
</g>
<!-- ProductComponent -->
<g id="node17" class="node">
<title>ProductComponent</title>
<polygon fill="#ffffb3" stroke="#000000" points="1256.3809,-122 1131.6191,-122 1131.6191,-86 1256.3809,-86 1256.3809,-122"/>
<text text-anchor="middle" x="1194" y="-99.8" font-family="Times,serif" font-size="14.00" fill="#000000">ProductComponent</text>
</g>
<!-- ProductComponent&#45;&gt;AppModule -->
<g id="edge17" class="edge">
<title>ProductComponent&#45;&gt;AppModule</title>
<path fill="none" stroke="#000000" d="M1194,-122.0225C1194,-139.3734 1194,-163 1194,-163 1194,-163 1865.2679,-163 1865.2679,-163"/>
<polygon fill="#000000" stroke="#000000" points="1865.2679,-166.5001 1875.2679,-163 1865.2678,-159.5001 1865.2679,-166.5001"/>
</g>
<!-- ProductsComponent -->
<g id="node18" class="node">
<title>ProductsComponent</title>
<polygon fill="#ffffb3" stroke="#000000" points="1113.3258,-122 982.6742,-122 982.6742,-86 1113.3258,-86 1113.3258,-122"/>
<text text-anchor="middle" x="1048" y="-99.8" font-family="Times,serif" font-size="14.00" fill="#000000">ProductsComponent</text>
</g>
<!-- ProductsComponent&#45;&gt;AppModule -->
<g id="edge18" class="edge">
<title>ProductsComponent&#45;&gt;AppModule</title>
<path fill="none" stroke="#000000" d="M1048,-122.2667C1048,-140.5552 1048,-166 1048,-166 1048,-166 1865.0863,-166 1865.0863,-166"/>
<polygon fill="#000000" stroke="#000000" points="1865.0864,-169.5001 1875.0863,-166 1865.0863,-162.5001 1865.0864,-169.5001"/>
</g>
<!-- SearchResultsComponent -->
<g id="node19" class="node">
<title>SearchResultsComponent</title>
<polygon fill="#ffffb3" stroke="#000000" points="965.1414,-122 804.8586,-122 804.8586,-86 965.1414,-86 965.1414,-122"/>
<text text-anchor="middle" x="885" y="-99.8" font-family="Times,serif" font-size="14.00" fill="#000000">SearchResultsComponent</text>
</g>
<!-- SearchResultsComponent&#45;&gt;AppModule -->
<g id="edge19" class="edge">
<title>SearchResultsComponent&#45;&gt;AppModule</title>
<path fill="none" stroke="#000000" d="M885,-122.1061C885,-141.3391 885,-169 885,-169 885,-169 1865.2662,-169 1865.2662,-169"/>
<polygon fill="#000000" stroke="#000000" points="1865.2662,-172.5001 1875.2662,-169 1865.2662,-165.5001 1865.2662,-172.5001"/>
</g>
<!-- StopPropagationDirective -->
<g id="node20" class="node">
<title>StopPropagationDirective</title>
<polygon fill="#ffffb3" stroke="#000000" points="786.9101,-122 625.0899,-122 625.0899,-86 786.9101,-86 786.9101,-122"/>
<text text-anchor="middle" x="706" y="-99.8" font-family="Times,serif" font-size="14.00" fill="#000000">StopPropagationDirective</text>
</g>
<!-- StopPropagationDirective&#45;&gt;AppModule -->
<g id="edge20" class="edge">
<title>StopPropagationDirective&#45;&gt;AppModule</title>
<path fill="none" stroke="#000000" d="M706,-122.2228C706,-142.3652 706,-172 706,-172 706,-172 1865.3146,-172 1865.3146,-172"/>
<polygon fill="#000000" stroke="#000000" points="1865.3147,-175.5001 1875.3146,-172 1865.3146,-168.5001 1865.3147,-175.5001"/>
</g>
<!-- AppComponent  -->
<g id="node24" class="node">
<title>AppComponent </title>
<polygon fill="#80b1d3" stroke="#000000" points="1971.439,-252 1862.561,-252 1862.561,-216 1971.439,-216 1971.439,-252"/>
<text text-anchor="middle" x="1917" y="-229.8" font-family="Times,serif" font-size="14.00" fill="#000000">AppComponent </text>
</g>
<!-- AppModule&#45;&gt;AppComponent  -->
<g id="edge23" class="edge">
<title>AppModule&#45;&gt;AppComponent </title>
<path fill="none" stroke="#000000" stroke-dasharray="1,5" d="M1917,-187.1061C1917,-187.1061 1917,-205.991 1917,-205.991"/>
<polygon fill="#000000" stroke="#000000" points="1913.5001,-205.9909 1917,-215.991 1920.5001,-205.991 1913.5001,-205.9909"/>
</g>
<!-- AppRoutingModule -->
<g id="node22" class="node">
<title>AppRoutingModule</title>
<polygon fill="#8dd3c7" stroke="#000000" points="601.2744,-122 598.2744,-126 577.2744,-126 574.2744,-122 472.7256,-122 472.7256,-86 601.2744,-86 601.2744,-122"/>
<text text-anchor="middle" x="537" y="-99.8" font-family="Times,serif" font-size="14.00" fill="#000000">AppRoutingModule</text>
</g>
<!-- AppRoutingModule&#45;&gt;AppModule -->
<g id="edge21" class="edge">
<title>AppRoutingModule&#45;&gt;AppModule</title>
<path fill="none" stroke="#000000" d="M537,-122.2843C537,-143.3211 537,-175 537,-175 537,-175 1865.3234,-175 1865.3234,-175"/>
<polygon fill="#000000" stroke="#000000" points="1865.3234,-178.5001 1875.3234,-175 1865.3233,-171.5001 1865.3234,-178.5001"/>
</g>
<!-- SharedModule -->
<g id="node23" class="node">
<title>SharedModule</title>
<polygon fill="#8dd3c7" stroke="#000000" points="454.4231,-122 451.4231,-126 430.4231,-126 427.4231,-122 355.5769,-122 355.5769,-86 454.4231,-86 454.4231,-122"/>
<text text-anchor="middle" x="405" y="-99.8" font-family="Times,serif" font-size="14.00" fill="#000000">SharedModule</text>
</g>
<!-- SharedModule&#45;&gt;AppModule -->
<g id="edge22" class="edge">
<title>SharedModule&#45;&gt;AppModule</title>
<path fill="none" stroke="#000000" d="M405,-122.2921C405,-144.2057 405,-178 405,-178 405,-178 1864.9824,-178 1864.9824,-178"/>
<polygon fill="#000000" stroke="#000000" points="1864.9824,-181.5001 1874.9824,-178 1864.9823,-174.5001 1864.9824,-181.5001"/>
</g>
<!-- GlobalService -->
<g id="node25" class="node">
<title>GlobalService</title>
<ellipse fill="#fdb462" stroke="#000000" cx="266" cy="-104" rx="66.0492" ry="18"/>
<text text-anchor="middle" x="266" y="-99.8" font-family="Times,serif" font-size="14.00" fill="#000000">GlobalService</text>
</g>
<!-- GlobalService&#45;&gt;AppModule -->
<g id="edge24" class="edge">
<title>GlobalService&#45;&gt;AppModule</title>
<path fill="none" stroke="#000000" d="M266,-122.2479C266,-145.0179 266,-181 266,-181 266,-181 1864.9471,-181 1864.9471,-181"/>
<polygon fill="#000000" stroke="#000000" points="1864.9471,-184.5001 1874.9471,-181 1864.947,-177.5001 1864.9471,-184.5001"/>
</g>
<!-- LocalCartService -->
<g id="node26" class="node">
<title>LocalCartService</title>
<ellipse fill="#fdb462" stroke="#000000" cx="103" cy="-104" rx="78.7047" ry="18"/>
<text text-anchor="middle" x="103" y="-99.8" font-family="Times,serif" font-size="14.00" fill="#000000">LocalCartService</text>
</g>
<!-- LocalCartService&#45;&gt;AppModule -->
<g id="edge25" class="edge">
<title>LocalCartService&#45;&gt;AppModule</title>
<path fill="none" stroke="#000000" d="M103,-122.1532C103,-145.7566 103,-184 103,-184 103,-184 1865.2681,-184 1865.2681,-184"/>
<polygon fill="#000000" stroke="#000000" points="1865.2682,-187.5001 1875.2681,-184 1865.2681,-180.5001 1865.2682,-187.5001"/>
</g>
</g>
</svg>
